<?xml version="1.0" encoding="UTF-8"?><!DOCTYPE svg PUBLIC "-//W3C//DTD SVG 1.1//EN" "http://www.w3.org/Graphics/SVG/1.1/DTD/svg11.dtd"><svg xmlns="http://www.w3.org/2000/svg" xmlns:xlink="http://www.w3.org/1999/xlink"><symbol id="arrow_down" viewBox="0 0 24 24">
<path d="M18.75 7.75L11.75 15.75L5.25 7.75" stroke="#333333"/>
</symbol><symbol id="arrow_right" viewBox="0 0 24 24">
<path d="M8 5L16 12L8 18.5" stroke="#333333"/>
</symbol><symbol id="bag" viewBox="0 0 24 24">
<path d="M5.25468 10.5659C5.13958 9.11201 6.2884 7.86865 7.74689 7.86865H16.2531C17.7116 7.86865 18.8604 9.11201 18.7453 10.566L18.2203 17.1975C18.1174 18.4977 17.0323 19.5002 15.7281 19.5002H8.27189C6.96769 19.5002 5.88261 18.4977 5.77968 17.1975L5.25468 10.5659Z" stroke="#333333"/>
<path d="M7.99999 12.5C7.99999 12.5 7.78329 4 12 4C16.2167 4 16 12.5 16 12.5" stroke="#333333"/>
</symbol><symbol id="clock" viewBox="0 0 20 20">
<circle cx="10" cy="10" r="7" fill="white" stroke="#333333"/>
<path d="M9.55453 5.5L9.55453 10.7061L13.5 13" stroke="#333333"/>
</symbol><symbol id="close" viewBox="0 0 16 16">
<path d="M3.70001 12.0664L12.0501 3.88337" stroke="#C4C4C4"/>
<path d="M12.2516 12.0664L3.90161 3.88335" stroke="#C4C4C4"/>
</symbol><symbol id="Description" viewBox="0 0 20 20">
<circle cx="10" cy="10" r="7" stroke="#333333"/>
<path d="M6 8C6.24928 8 8.75787 6.5 8.75787 6.5H10.0043H11.2507C11.2507 6.5 13.7507 8 14 8" stroke="#333333"/>
<path d="M6.01577 7.39283L6.01576 9.17806L7.76075 9.4756L7.76075 13.9386" stroke="#333333"/>
<path d="M13.9842 7.39283L13.9842 9.17806L12.2393 9.4756L12.2478 13.9386" stroke="#333333"/>
<line x1="7.51145" y1="13.4385" x2="12.4971" y2="13.4385" stroke="#333333"/>
<path d="M8.50859 6.5C8.50859 6.5 9.00716 8.28522 10.0043 8.28522C11.0014 8.28522 11.5 6.5 11.5 6.5" stroke="#333333"/>
</symbol><symbol id="favorite" viewBox="0 0 24 24">
<path d="M11.9 7.0948C10.6998 1.47892 1.40881 5.90389 5.76037 11.6018C10.1119 17.2996 12.4 19.4908 12.4 19.4908" stroke="#333333"/>
<path d="M11.8941 7.0948C13.0944 1.47892 22.7304 5.90389 18.3789 11.6018C14.0273 17.2996 11.7 19.5 11.7 19.5" stroke="#333333"/>
<path d="M11.391 6.70752L12.4043 6.70757L12.3834 7.24079H11.391V6.70752Z" fill="#333333"/>
</symbol><symbol id="icon_star" viewBox="0 0 12 12">
<path d="M6 3.565L6.485 4.71L6.72 5.265L7.32 5.315L8.555 5.42L7.615 6.235L7.16 6.63L7.295 7.22L7.575 8.425L6.515 7.785L6 7.465L5.485 7.775L4.425 8.415L4.705 7.21L4.84 6.62L4.385 6.225L3.445 5.41L4.68 5.305L5.28 5.255L5.515 4.7L6 3.565ZM6 1L4.595 4.315L1 4.62L3.73 6.985L2.91 10.5L6 8.635L9.09 10.5L8.27 6.985L11 4.62L7.405 4.315L6 1Z" fill="#333333"/>
</symbol><symbol id="icon_star_fill" viewBox="0 0 12 12">
<path d="M6 8.635L9.09 10.5L8.27 6.985L11 4.62L7.405 4.315L6 1L4.595 4.315L1 4.62L3.73 6.985L2.91 10.5L6 8.635Z" fill="#333333"/>
</symbol><symbol id="menu" viewBox="0 0 24 24">
<line x1="5.01046" y1="18.2822" x2="18.6464" y2="4.6462" stroke="#333333"/>
<line y1="-0.5" x2="19.2842" y2="-0.5" transform="matrix(-0.707107 -0.707107 -0.707107 0.707107 19 18.6357)" stroke="#333333"/>
</symbol><symbol id="pay" viewBox="0 0 20 20">
<rect x="3.5" y="5.5" width="13" height="9" rx="0.5" stroke="#333333"/>
<rect x="4" y="8" width="12" height="2" fill="#333333"/>
</symbol><symbol id="person" viewBox="0 0 24 24">
<circle cx="12.4595" cy="8.18919" r="3.68919" stroke="#333333"/>
<path d="M4.5 19.3379H19.5" stroke="#333333"/>
<path d="M4.5 19.84C4.5 16.4347 8.84699 13.9134 12.2143 14.0023C15.4328 14.0872 19.5 16.4347 19.5 19.84" stroke="#333333"/>
</symbol></svg>